<svg id="Layer_1" data-name="Layer 1" xmlns="http://www.w3.org/2000/svg" viewBox="0 0 226.77 226.77"><defs><style>.cls-1{fill:#ee7f22;}.cls-2{fill:none;stroke:#f3ab1d;stroke-linecap:round;stroke-miterlimit:10;stroke-width:2px;}.cls-3{fill:#f3ab1d;}.cls-4{fill:#01569f;}.cls-5{fill:#2b3276;}</style></defs><path class="cls-1" d="M170.57,51.25h-109A10.48,10.48,0,0,0,51,61.66v61a10.22,10.22,0,0,0,2.36,6.56A22,22,0,0,1,74.63,101.5a22,22,0,0,1,19.82,31.61h9.78c0-.3.09-.58.14-.86s.06-.31.1-.47a19.51,19.51,0,0,1,3.74-8.16,19.24,19.24,0,0,1,2.24-2.44,19.8,19.8,0,0,1,5.88-3.78c.36-.15.72-.29,1.09-.42a19.87,19.87,0,0,1,6.57-1.1c.42,0,.85,0,1.26,0h.2a19.33,19.33,0,0,1,6.77,1.73,14.54,14.54,0,0,1,1.37.68,19.92,19.92,0,0,1,6.46,5.67l1.43,2.26a19.68,19.68,0,0,1,3.54-4.74,20.49,20.49,0,0,1,2-1.73,20.08,20.08,0,0,1,7.12-3.43c.23-.06.47-.11.7-.15a19,19,0,0,1,4.2-.46,19.88,19.88,0,0,1,2.78.2l.46.07a19.59,19.59,0,0,1,7.36,2.8,17.61,17.61,0,0,1,1.77,1.24,19.68,19.68,0,0,1,6.71,9.87,10.25,10.25,0,0,0,3-7.24v-61A10.48,10.48,0,0,0,170.57,51.25Z"/><polyline class="cls-2" points="67.09 60.41 67.09 66.86 67.09 73.89 67.09 80.92 67.09 87.97 67.09 95 67.09 102.03"/><line class="cls-2" x1="65.46" y1="59.83" x2="70.1" y2="59.83"/><line class="cls-2" x1="65.46" y1="66.86" x2="70.1" y2="66.86"/><line class="cls-2" x1="65.46" y1="73.9" x2="70.1" y2="73.9"/><line class="cls-2" x1="65.46" y1="80.93" x2="70.1" y2="80.93"/><line class="cls-2" x1="65.46" y1="87.96" x2="70.1" y2="87.96"/><line class="cls-2" x1="65.46" y1="94.99" x2="70.1" y2="94.99"/><line class="cls-2" x1="65.46" y1="116.09" x2="70.1" y2="116.09"/><line class="cls-2" x1="65.46" y1="123.12" x2="70.1" y2="123.12"/><path class="cls-2" d="M166.7,58.81l-35,28.74-28.59-4.28L81.68,99.65"/><path class="cls-3" d="M140.05,96.1V124a19.92,19.92,0,0,0-6.46-5.67,14.54,14.54,0,0,0-1.37-.68V96.1Z"/><path class="cls-3" d="M110.45,91.59v29.59a19.24,19.24,0,0,0-2.24,2.44,19.51,19.51,0,0,0-3.74,8.16h-1.85V91.59Z"/><path class="cls-3" d="M125.25,95v20.92c-.41,0-.84,0-1.26,0a19.87,19.87,0,0,0-6.57,1.1V95Z"/><path class="cls-3" d="M154.84,84.4v31.82c-.23,0-.47.09-.7.15A20.08,20.08,0,0,0,147,119.8V84.4Z"/><path class="cls-3" d="M169.64,74.87v44a19.59,19.59,0,0,0-7.36-2.8l-.46-.07V74.87Z"/><line class="cls-2" x1="168.3" y1="56.68" x2="156.75" y2="56.99"/><line class="cls-2" x1="168.47" y1="56.83" x2="168.79" y2="68.07"/><path class="cls-4" d="M141.09,135.81c0,.47,0,.92-.06,1.36a16.59,16.59,0,0,1-.4,2.57,18.85,18.85,0,0,1-.41-3.93,15,15,0,0,1,.08-1.65,17,17,0,0,1,.33-2.27,15.35,15.35,0,0,1,.37,2.27.68.68,0,0,1,0,.14A15,15,0,0,1,141.09,135.81Z"/><path class="cls-4" d="M141,134.3a15,15,0,0,1,.07,1.51c0,.47,0,.92-.06,1.36a16.59,16.59,0,0,1-.4,2.57h0a16.4,16.4,0,0,1-.59,2c-.1-.3-.19-.61-.27-.92l-.1-.37a19.87,19.87,0,0,1-.57-4.72,17.27,17.27,0,0,1,.09-1.81,18.41,18.41,0,0,1,.55-3.18c.08-.3.16-.6.26-.89,0,0,0,.09.05.13a13.87,13.87,0,0,1,.58,1.93h0a15.35,15.35,0,0,1,.37,2.27A.68.68,0,0,1,141,134.3Z"/><polyline class="cls-2" points="68.09 109.06 68.09 116.08 68.09 123.13 68.09 131.78"/><path class="cls-5" d="M94.82,123.52a19.21,19.21,0,0,1-17.15,19.09,19,19,0,0,1-4.08,0,19.19,19.19,0,1,1,21.23-19.09Z"/><path class="cls-5" d="M99.15,159.46v15.48a.88.88,0,0,1-.89.88H53a.88.88,0,0,1-.89-.88V159.46A16.84,16.84,0,0,1,62.35,144a16.41,16.41,0,0,1,4.14-1.17,16.8,16.8,0,0,1,2.47-.18H82.29a16.8,16.8,0,0,1,2.47.18A16.41,16.41,0,0,1,88.9,144,16.83,16.83,0,0,1,99.15,159.46Z"/><path class="cls-5" d="M77.67,142.61h4.62a16.8,16.8,0,0,1,2.47.18A16.41,16.41,0,0,1,88.9,144L86,145.35a24.17,24.17,0,0,1-20.71,0L62.35,144a16.41,16.41,0,0,1,4.14-1.17,16.8,16.8,0,0,1,2.47-.18h4.63a19.18,19.18,0,1,1,4.08,0Z"/><path class="cls-5" d="M94.82,123.52a19.21,19.21,0,0,1-17.15,19.09h4.62a16.8,16.8,0,0,1,2.47.18,21.47,21.47,0,0,1-18.27,0,16.8,16.8,0,0,1,2.47-.18h4.63a19.19,19.19,0,1,1,21.23-19.09Z"/><path class="cls-1" d="M72.38,142.6l2.68,4.47H76.7l2.69-4.47h-7Z"/><path class="cls-1" d="M74.36,150.68c-1.64,1.92-3.34,17.09-3.64,19.82L76,174.24,81,170.6c-.23-2.43-1.75-17.93-3.49-19.89a2.28,2.28,0,0,0-1.59-.92A2.25,2.25,0,0,0,74.36,150.68Z"/><path class="cls-4" d="M146.87,167.72v7.48a.79.79,0,0,1-.78.78h-42.2a.79.79,0,0,1-.78-.78v-7.48A14.76,14.76,0,0,1,116.88,153c.33,0,.67,0,1,0h14.19c.35,0,.7,0,1,0a14.75,14.75,0,0,1,13.75,14.73Z"/><path class="cls-4" d="M142.09,135.81c0,.47,0,.92-.06,1.36a16.59,16.59,0,0,1-.4,2.57h0a16.4,16.4,0,0,1-.59,2,17,17,0,0,1-10.79,10.37,16.25,16.25,0,0,1-4.38.81l-.88,0-.87,0a16.32,16.32,0,0,1-4.39-.81,17.09,17.09,0,0,1-11.85-16.27c0-.56,0-1.11.08-1.65a12,12,0,0,1,.19-1.34,16.83,16.83,0,0,1,3.3-7.46A17.1,17.1,0,0,1,125,118.71c.42,0,.84,0,1.26.05a16.83,16.83,0,0,1,7,2.06,17.1,17.1,0,0,1,7.78,9s0,.09.05.13a13.87,13.87,0,0,1,.58,1.93h0a15.35,15.35,0,0,1,.37,2.27.68.68,0,0,1,0,.14A15,15,0,0,1,142.09,135.81Z"/><path class="cls-4" d="M132.08,153c.35,0,.7,0,1,0a20.37,20.37,0,0,1-2.28.9,19.15,19.15,0,0,1-4.87.9l-1,0-1,0a19,19,0,0,1-4.87-.9,19.49,19.49,0,0,1-2.27-.9c.33,0,.67,0,1,0Z"/><path class="cls-4" d="M142,134.3a15,15,0,0,1,.07,1.51c0,.47,0,.92-.06,1.36a16.59,16.59,0,0,1-.4,2.57h0a16.4,16.4,0,0,1-.59,2,17,17,0,0,1-10.79,10.37,16.25,16.25,0,0,1-4.38.81l-.88,0-.87,0a16.32,16.32,0,0,1-4.39-.81,17.09,17.09,0,0,1-11.85-16.27c0-.56,0-1.11.08-1.65a12,12,0,0,1,.19-1.34,16.83,16.83,0,0,1,3.3-7.46A17.1,17.1,0,0,1,125,118.71c.42,0,.84,0,1.26.05a16.83,16.83,0,0,1,7,2.06,17.1,17.1,0,0,1,7.78,9s0,.09.05.13a13.87,13.87,0,0,1,.58,1.93h0a15.35,15.35,0,0,1,.37,2.27A.68.68,0,0,1,142,134.3Z"/><path class="cls-4" d="M142.09,135.81c0,.47,0,.92-.06,1.36a16.59,16.59,0,0,1-.4,2.57h0a16.4,16.4,0,0,1-.59,2,17,17,0,0,1-10.79,10.37,16.25,16.25,0,0,1-4.38.81l-.88,0-.87,0a16.32,16.32,0,0,1-4.39-.81,17.09,17.09,0,0,1-11.85-16.27c0-.56,0-1.11.08-1.65a12,12,0,0,1,.19-1.34,16.83,16.83,0,0,1,3.3-7.46A17.1,17.1,0,0,1,125,118.71c.42,0,.84,0,1.26.05a16.83,16.83,0,0,1,7,2.06,17.1,17.1,0,0,1,7.78,9s0,.09.05.13a13.87,13.87,0,0,1,.58,1.93h0a15.35,15.35,0,0,1,.37,2.27.68.68,0,0,1,0,.14A15,15,0,0,1,142.09,135.81Z"/><path class="cls-4" d="M181.92,167.56V175a.78.78,0,0,1-.78.78H149.37v-8.9a14.72,14.72,0,0,0-5.2-11.25,14.49,14.49,0,0,1,3.27-1.82,15.14,15.14,0,0,1,4.33-1h0c.38,0,.76,0,1.15,0h14.19a11.85,11.85,0,0,1,1.47.08h0a14.77,14.77,0,0,1,13.3,14.69Z"/><path class="cls-4" d="M177.15,135.7a17.12,17.12,0,0,1-16.23,17.09l-.88,0-.88,0A17.1,17.1,0,0,1,144,141.7c-.2-.53-.37-1.07-.52-1.63h0a16.5,16.5,0,0,1-.57-4.36c0-.52,0-1,.07-1.54a16.39,16.39,0,0,1,.47-2.73,12.89,12.89,0,0,1,.52-1.63,16.89,16.89,0,0,1,4-6.26,17,17,0,0,1,12-4.94,17,17,0,0,1,2.78.23,17.13,17.13,0,0,1,14.06,13.89A16.27,16.27,0,0,1,177.15,135.7Z"/><path class="cls-4" d="M168.62,152.87a14.76,14.76,0,0,1,4.25,1.08l-3,1.47a20.16,20.16,0,0,1-2.92,1.16,21.34,21.34,0,0,1-5.58,1l-1.12,0-1.07,0a21.71,21.71,0,0,1-5.65-1,22,22,0,0,1-3-1.2l-3.1-1.53a15.14,15.14,0,0,1,4.33-1h0c.38,0,.76,0,1.15,0h6.21A17.1,17.1,0,0,1,144,141.7c-.2-.53-.37-1.07-.52-1.63h0a16.5,16.5,0,0,1-.57-4.36c0-.52,0-1,.07-1.54a16.39,16.39,0,0,1,.47-2.73,12.89,12.89,0,0,1,.52-1.63,16.89,16.89,0,0,1,4-6.26,17,17,0,0,1,12-4.94,17,17,0,0,1,2.78.23,17.13,17.13,0,0,1,14.06,13.89,16.27,16.27,0,0,1,.27,3,17.12,17.12,0,0,1-16.23,17.09h6.22a11.85,11.85,0,0,1,1.47.08Z"/><path class="cls-4" d="M160.92,152.79h6.22a11.85,11.85,0,0,1,1.47.08,18.7,18.7,0,0,1-2.54,1,19,19,0,0,1-4.87.9l-1,0-1,0a19.15,19.15,0,0,1-4.87-.9,18.16,18.16,0,0,1-2.58-1.06c.38,0,.76,0,1.15,0h6.21A17.1,17.1,0,0,1,144,141.7c-.2-.53-.37-1.07-.52-1.63h0a16.5,16.5,0,0,1-.57-4.36c0-.52,0-1,.07-1.54a16.39,16.39,0,0,1,.47-2.73,12.89,12.89,0,0,1,.52-1.63,16.89,16.89,0,0,1,4-6.26,17,17,0,0,1,12-4.94,17,17,0,0,1,2.78.23,17.13,17.13,0,0,1,14.06,13.89,16.27,16.27,0,0,1,.27,3A17.12,17.12,0,0,1,160.92,152.79Z"/></svg>