<svg id="Layer_1" data-name="Layer 1" xmlns="http://www.w3.org/2000/svg" viewBox="0 0 226.77 226.77"><defs><style>.cls-1{fill:#ee7f22;}.cls-2{fill:#01569f;}.cls-3{fill:none;stroke:#01569f;stroke-linecap:round;stroke-miterlimit:10;stroke-width:2px;}.cls-4{fill:#2b3276;}.cls-5{fill:#f3ab1d;}</style></defs><path class="cls-1" d="M165.31,64.29H55.19l-.59,0-.37,0-.36.06-.38.07q-.42.09-.81.21l-.58.19-.48.19a10.46,10.46,0,0,0-6.26,7.3,10.75,10.75,0,0,0-.28,2.42v61.82a10.12,10.12,0,0,0,.1,1.36c0,.05,0,.1,0,.16l.09.56a.43.43,0,0,1,0,.05,10.55,10.55,0,0,0,9.92,8.41h99.48c.21-1.19.41-2.37.61-3.56l-4.8.7,1-7.08.33-2.23-7.56-5.61,7.56-5.62-1.37-9.32,9.31,1.37,5.5-7.39.12-.16,5.62,7.55,4.13-.61V74.82A10.56,10.56,0,0,0,165.31,64.29Z"/><rect class="cls-2" x="83.25" y="88.12" width="52.92" height="8.52" rx="2.29"/><line class="cls-3" x1="83.25" y1="108.19" x2="137.01" y2="108.19"/><line class="cls-3" x1="79.77" y1="113.77" x2="140.49" y2="113.77"/><line class="cls-3" x1="79.77" y1="119.34" x2="140.49" y2="119.34"/><path class="cls-4" d="M55.73,64.27h109a10.55,10.55,0,0,1,10.55,10.55v0a0,0,0,0,1,0,0H45.18a0,0,0,0,1,0,0v0A10.55,10.55,0,0,1,55.73,64.27Z"/><path class="cls-4" d="M150.5,144.33l4.8-.7c-.2,1.19-.4,2.37-.61,3.56,0,.2-.07.41-.11.61H55.73a6.85,6.85,0,0,1-.79,0,.48.48,0,0,1-.12,0,10.55,10.55,0,0,1-9.53-9,.43.43,0,0,0,0-.05,10.18,10.18,0,0,1-.1-1.47H151.54Z"/><path class="cls-4" d="M55.21,64.27h0a0,0,0,0,1,0,0v83.5a0,0,0,0,1,0,0h0a10,10,0,0,1-10-10V74.3A10,10,0,0,1,55.21,64.27Z"/><path class="cls-4" d="M165.31,64.27v44.18l.12-.16,5.62,7.55,4.13-.61.16,0V74.3A10,10,0,0,0,165.31,64.27Z"/><circle class="cls-4" cx="56.22" cy="74.99" r="7.94"/><circle class="cls-4" cx="163.88" cy="74.99" r="7.94"/><circle class="cls-4" cx="56.22" cy="136.27" r="7.94"/><path class="cls-1" d="M163.58,144.63l1.47,2-1.83,10.6-3.83-3.6-4.74,2.12,1.92-11.09.09-.52c.18-1.05.37-2.1.54-3.14l3.16-.47h.13l.13.17,2.57,3.45Z"/><path class="cls-1" d="M166.31,139.29l-.21,1.17v.1h0l-.11.69h0l-.49,2.81-.09.53-.06.33v0l0,.12-.32-.45-.39-.51h0l0-.12h0l-1.92-2.56h0l-1.23-1.66-.42-.57-1.55.24-.32,0-1.65.25c0-.21.07-.41.1-.62.08-.42.15-.85.23-1.27l.18,0,7.28,1.27.63.1h0Z"/><path class="cls-1" d="M173.3,141.22l-.08-.28-.87-.13-.23,0-.43-.06-1.56-.23-2.24,3-.55.74-.09.12-1.5,2a1.52,1.52,0,0,0,.06.2q1.55,5.34,3.1,10.67c1.1-1.33,2.22-2.66,3.33-4l5,1.56Z"/><polygon class="cls-5" points="175.88 132.98 176.95 140.25 173.23 139.7 173 139.66 172.84 139.64 172.8 139.64 172.46 139.59 170.25 139.26 169.69 139.18 169.46 139.49 166.12 143.99 165.74 144.49 165.67 144.59 165.66 144.6 165.66 144.6 165.36 145.02 165.31 145.07 164.99 144.62 164.6 144.11 164.51 143.99 164.51 143.98 164.51 143.97 162.59 141.41 162.59 141.41 161.36 139.74 160.94 139.18 159.39 139.41 159.07 139.45 157.42 139.7 156.85 139.78 153.67 140.25 154.36 135.58 154.74 132.98 148.85 128.61 154.74 124.23 153.67 116.97 160.94 118.04 165.21 112.28 165.31 112.14 169.69 118.04 173.68 117.44 173.81 117.43 176.95 116.97 175.88 124.23 181.78 128.61 175.88 132.98"/><path class="cls-1" d="M173,128.61a7.7,7.7,0,1,1-7.7-7.7A7.7,7.7,0,0,1,173,128.61Z"/></svg>