<svg id="Layer_1" data-name="Layer 1" xmlns="http://www.w3.org/2000/svg" viewBox="0 0 226.77 226.77"><defs><style>.cls-1{fill:#2b3276;}.cls-2{fill:#ee7f22;}</style></defs><path class="cls-1" d="M164.78,116.76l-11.7,11.7-1.72,1.73-11.42,11.42-.28.27-1.73,1.73-.27.28L128,153.55a5,5,0,0,0-.16-.67l0-.17,0,0c0-.07-.05-.13-.07-.2a4.25,4.25,0,0,0-.21-.49,2,2,0,0,0-.2-.38.41.41,0,0,0,0-.09,2.57,2.57,0,0,0-.26-.41.07.07,0,0,0,0,0s0,0,0,0a.12.12,0,0,0,0-.07,2,2,0,0,0-.19-.24.35.35,0,0,0-.08-.1l-.13-.15a2,2,0,0,0-.24-.26l-6.55-6.55h0a2.7,2.7,0,0,0-.31-.28s0-.05-.06-.05,0,0,0,0l-.18-.15s0,0,0,0,0,0,0,0v0a0,0,0,0,0,0,0l0,0a.39.39,0,0,0-.1-.08h0a1.81,1.81,0,0,0-.29-.19l0,0,0,0s0,0,0,0l0,0,0,0,0,0s0,0,0,0l0,0h0a3.13,3.13,0,0,0-.36-.19,3,3,0,0,0-.49-.21h0a.24.24,0,0,0-.09,0h0s0,0,0,0a.06.06,0,0,0,0,0s0,0,0,0h0l-.12-.05h0a.17.17,0,0,0-.1,0,5.1,5.1,0,0,0-1-.22l-.2,0a5.83,5.83,0,0,0-.59,0,1.62,1.62,0,0,0-.31,0h-.09a.41.41,0,0,0,0-.11c0-.11,0-.2,0-.29a3.24,3.24,0,0,0,0-.44.38.38,0,0,0,0-.1.71.71,0,0,0,0-.2,1,1,0,0,0,0-.18.57.57,0,0,0,0-.18,1.13,1.13,0,0,0,0-.18c0-.1,0-.2-.07-.3l0-.14a.88.88,0,0,0,0-.15.19.19,0,0,0,0-.07,4.6,4.6,0,0,0-.19-.52l-.09-.21a1.76,1.76,0,0,0-.09-.2l0,0a2.12,2.12,0,0,0-.11-.21c-.08-.15-.18-.31-.28-.46l-.06-.08a2.14,2.14,0,0,0-.19-.26.05.05,0,0,0,0,0,.9.9,0,0,0-.16-.19s0,0,0,0h0s0,0,0,0,0,0,0,0,0,0,0-.05a3.25,3.25,0,0,0-.26-.3l-2.33-2.32-2-2h0l-2.21-2.22-.1-.09-.17-.16-.18-.15a6.4,6.4,0,0,0-4.11-1.48,2.55,2.55,0,0,0-.39,0,6.42,6.42,0,0,0-1.86-5L93,116.93A6.37,6.37,0,0,0,88.4,115a2.55,2.55,0,0,0-.39,0,2.55,2.55,0,0,0,0-.39,6.37,6.37,0,0,0-1.89-4.55l-6.55-6.55a6.35,6.35,0,0,0-3.18-1.75l13-13A6.32,6.32,0,0,0,91.12,92l6.55,6.55a6.45,6.45,0,0,0,9.1,0l19.92-19.92L149.06,101l0,0,10.35,10.35,2,2Z"/><path class="cls-2" d="M161.43,113.42,150,124.82l-.28.29L148,126.83h0l-.27.29-11.15,11.14-.28.27-1.73,1.73-.27.28-8.88,8.87-5.75-5.75-.31-.29s0-.05-.06-.05,0,0,0,0l-.18-.15s0,0,0,0,0,0,0,0v0a0,0,0,0,0,0,0l0,0a.39.39,0,0,0-.1-.08h0a1.81,1.81,0,0,0-.29-.19l0,0,0,0s0,0,0,0l0,0,0,0,0,0s0,0,0,0l0,0h0a3.13,3.13,0,0,0-.36-.19,3,3,0,0,0-.49-.21h0l-.09,0h0s0,0,0,0a.06.06,0,0,0,0,0s0,0,0,0h0l-.12-.05h0a.17.17,0,0,0-.1,0,6.1,6.1,0,0,0-1-.22l-.2,0a5.83,5.83,0,0,0-.59,0,1.62,1.62,0,0,0-.31,0h-.09a.41.41,0,0,0,0-.11c0-.11,0-.2,0-.29a3.24,3.24,0,0,0,0-.44.38.38,0,0,0,0-.1.71.71,0,0,0,0-.2,1,1,0,0,0,0-.18.57.57,0,0,0,0-.18,1.13,1.13,0,0,0,0-.18c0-.1,0-.2-.07-.3s0-.19-.08-.29a.19.19,0,0,0,0-.07,4.6,4.6,0,0,0-.19-.52l-.09-.21a1.76,1.76,0,0,0-.09-.2l0,0a2.12,2.12,0,0,0-.11-.21c-.08-.15-.18-.31-.28-.46l-.06-.08a2.14,2.14,0,0,0-.19-.26.05.05,0,0,0,0,0,1.46,1.46,0,0,0-.16-.19s0,0,0,0h0s0,0,0,0,0,0,0,0,0,0,0-.05A.58.58,0,0,0,113,137l-.14-.14-4.33-4.34-2.31-2.31-.17-.16-.18-.15a6.4,6.4,0,0,0-4.11-1.48,2.55,2.55,0,0,0-.39,0,6.42,6.42,0,0,0-1.86-5L93,116.93A6.37,6.37,0,0,0,88.4,115a2.55,2.55,0,0,0-.39,0,2.55,2.55,0,0,0,0-.39,6.37,6.37,0,0,0-1.89-4.55l-6.55-6.55a6.35,6.35,0,0,0-3.18-1.75,6.92,6.92,0,0,0-1.37-.14,6.37,6.37,0,0,0-4.55,1.89l-11,11-8.36-8.36a10.54,10.54,0,0,1,0-14.91L87.76,54.67a10.55,10.55,0,0,1,14.92,0L111,63,91.12,82.93a6.43,6.43,0,0,0-1.73,5.91A6.32,6.32,0,0,0,91.12,92l6.55,6.55a6.45,6.45,0,0,0,9.1,0l19.92-19.92L149.06,101l0,0,10.35,10.35Z"/><path class="cls-2" d="M171.5,128.57l-6.6,6.61a3.58,3.58,0,0,1-4,.75,3.45,3.45,0,0,1-1.12-.75l-6.72-6.72-1.72,1.73,6.72,6.72a3.51,3.51,0,0,1,.77,1.12,6,6,0,0,1-1-.84l-6.72-6.72-3.34-3.35-2-2-10.35-10.36a5.77,5.77,0,0,1-.83-1,6.29,6.29,0,0,1-1-3.11,6.39,6.39,0,0,1,1.86-5l6.6-6.6a6.48,6.48,0,0,1,3.32-1.78l3.76,3.76,0,0,10.35,10.35,2,2,3.35,3.34,6.72,6.73A3.58,3.58,0,0,1,171.5,128.57Z"/><path class="cls-2" d="M171.5,128.57l-6.6,6.61a3.58,3.58,0,0,1-4,.75,3.45,3.45,0,0,1-1.12-.75l-6.72-6.72-3.35-3.35-2-2-10.35-10.35a3.51,3.51,0,0,1-.75-1.11,3.61,3.61,0,0,1,.75-4l6.6-6.61a3.62,3.62,0,0,1,5.08,0l0,0,10.35,10.35,2,2,3.35,3.34,6.72,6.73A3.58,3.58,0,0,1,171.5,128.57Z"/><path class="cls-2" d="M153.08,128.46l-1.72,1.73,6.72,6.72a3.51,3.51,0,0,1,.77,1.12,3.61,3.61,0,0,1-.77,4l-6.6,6.6a3.6,3.6,0,0,1-4,.75,3.51,3.51,0,0,1-1.11-.75l-6.72-6.72-1.73,1.73,6.73,6.71a3.67,3.67,0,0,1,.75,1.12,5.77,5.77,0,0,1-1-.83l-6.72-6.72-3.35-3.35L122,128.19a6.48,6.48,0,0,1,0-9.11l6.6-6.6a6.36,6.36,0,0,1,4.55-1.88,2.82,2.82,0,0,1,.41,0,6.23,6.23,0,0,1,3.11,1,5.77,5.77,0,0,1,1,.83L150,124.82l3.35,3.36,6.72,6.72a6.31,6.31,0,0,1,.84,1,3.45,3.45,0,0,1-1.12-.75Z"/><path class="cls-2" d="M158.08,142l-6.6,6.6a3.6,3.6,0,0,1-4,.75,3.51,3.51,0,0,1-1.11-.75L124,126.18a3.51,3.51,0,0,1-.77-1.12,3.6,3.6,0,0,1,.77-4l6.6-6.6a3.62,3.62,0,0,1,4-.76,3.72,3.72,0,0,1,1.11.76L148,126.83l3.35,3.36,6.72,6.72a3.51,3.51,0,0,1,.77,1.12A3.61,3.61,0,0,1,158.08,142Z"/><path class="cls-2" d="M105.87,129.85l.18.19-.18-.15Z"/><path class="cls-2" d="M114.52,139.67l0,.14c0-.1,0-.19-.08-.29A.88.88,0,0,1,114.52,139.67Z"/><path class="cls-2" d="M114.74,141.68c0-.11,0-.2,0-.29a3.24,3.24,0,0,0,0-.44l.08.74v.1h-.09A.41.41,0,0,0,114.74,141.68Z"/><path class="cls-2" d="M115.72,141.8a5.83,5.83,0,0,0-.59,0,1.62,1.62,0,0,0-.31,0h-.09a.41.41,0,0,0,0-.11h.07Z"/><path class="cls-2" d="M128.42,157.48l-.18-.17-.47-.49a2.77,2.77,0,0,0,.12-.41h0a6.23,6.23,0,0,0,.18-2.15l.28,2.61,0,.29Z"/><path class="cls-2" d="M126.23,159.32h0a2.32,2.32,0,0,0,.26-.3l2.33,2.32.07.64Z"/><path class="cls-2" d="M131.23,163.75a3.41,3.41,0,0,1,.75,1.11,6.55,6.55,0,0,1-1-.82L128.89,162l-2.65-2.66h0a2.32,2.32,0,0,0,.26-.3l2.33,2.32Z"/><path class="cls-2" d="M125.07,153.57s0,0,0,0a0,0,0,0,0,0,0Z"/><path class="cls-2" d="M139.66,141.88l-1.73,1.73,6.73,6.71a3.67,3.67,0,0,1,.75,1.12,3.61,3.61,0,0,1-.75,4L138.05,162a3.61,3.61,0,0,1-4,.75A3.51,3.51,0,0,1,133,162l-4.54-4.55-.18-.17-.47-.49a2.77,2.77,0,0,0,.12-.41h0a6.23,6.23,0,0,0,.18-2.15,1.94,1.94,0,0,0,0-.24,4.11,4.11,0,0,0-.07-.47,5,5,0,0,0-.16-.67c0-.07,0-.14-.07-.21s-.05-.13-.07-.2a4.25,4.25,0,0,0-.21-.49c-.06-.13-.13-.26-.2-.38a.41.41,0,0,0,0-.09c-.08-.14-.17-.28-.26-.41a.07.07,0,0,0,0,0s0,0,0,0l0-.07a2,2,0,0,0-.19-.24.39.39,0,0,0-.08-.1l-.13-.15a2,2,0,0,0-.24-.26l-6.55-6.55-.31-.29s0-.05-.06-.05,0,0,0,0l-.18-.15s0,0,0,0,0,0,0,0v0a0,0,0,0,0,0,0l0,0a.39.39,0,0,0-.1-.08h0a1.81,1.81,0,0,0-.29-.19l0,0,0,0s0,0,0,0l0,0,0,0,0,0s0,0,0,0l0,0h0a3.13,3.13,0,0,0-.36-.19,3,3,0,0,0-.49-.21h0l-.09,0h0s0,0,0,0a.06.06,0,0,0,0,0s0,0,0,0h0l-.12-.05h0a.17.17,0,0,0-.1,0,6.1,6.1,0,0,0-1-.22l-.2,0a5.83,5.83,0,0,0-.59,0,1.62,1.62,0,0,0-.31,0h-.09a.41.41,0,0,0,0-.11c0-.11,0-.2,0-.29a3.24,3.24,0,0,0,0-.44.38.38,0,0,0,0-.1.71.71,0,0,0,0-.2,1,1,0,0,0,0-.18.57.57,0,0,0,0-.18,1.13,1.13,0,0,0,0-.18c0-.1,0-.2-.07-.3s0-.19-.08-.29a.19.19,0,0,0,0-.07,4.6,4.6,0,0,0-.19-.52l-.09-.21a1.76,1.76,0,0,0-.09-.2l0,0a2.12,2.12,0,0,0-.11-.21c-.08-.15-.18-.31-.28-.46l-.06-.08a2.14,2.14,0,0,0-.19-.26.05.05,0,0,0,0,0,1.46,1.46,0,0,0-.16-.19s0,0,0,0h0s0,0,0,0,0,0,0,0,0,0,0-.05A.58.58,0,0,0,113,137l-.14-.14-4.33-4.34h0l6.59-6.6a6.41,6.41,0,0,1,4.56-1.89,2.82,2.82,0,0,1,.41,0,6.18,6.18,0,0,1,3.09,1,5.67,5.67,0,0,1,1,.85l10.35,10.35,2,2,3.34,3.34h0l6.72,6.71a6.14,6.14,0,0,1,.83,1,3.51,3.51,0,0,1-1.11-.75Z"/><path class="cls-2" d="M144.66,155.42,138.05,162a3.61,3.61,0,0,1-4,.75A3.51,3.51,0,0,1,133,162l-4.54-4.55-.18-.17-.47-.49a2.77,2.77,0,0,0,.12-.41h0a6.23,6.23,0,0,0,.18-2.15,1.94,1.94,0,0,0,0-.24,4.11,4.11,0,0,0-.07-.47,5,5,0,0,0-.16-.67l0-.17,0,0c0-.07-.05-.13-.07-.2a4.25,4.25,0,0,0-.21-.49,2,2,0,0,0-.2-.38.41.41,0,0,0,0-.09,2.57,2.57,0,0,0-.26-.41.07.07,0,0,0,0,0s0,0,0,0l0-.07a2,2,0,0,0-.19-.24.35.35,0,0,0-.08-.1.87.87,0,0,0-.13-.15,2,2,0,0,0-.24-.26l-6.55-6.55h0a2.7,2.7,0,0,0-.31-.28s0-.05-.06-.05,0,0,0,0a.8.8,0,0,0-.18-.15s0,0,0,0,0,0,0,0v0a0,0,0,0,0,0,0l0,0a.39.39,0,0,0-.1-.08h0a1.32,1.32,0,0,0-.29-.19l0,0,0,0s0,0,0,0l0,0,0,0,0,0s0,0,0,0l0,0h0a3.13,3.13,0,0,0-.36-.19,3,3,0,0,0-.49-.21h0l-.09,0h0s0,0,0,0a.06.06,0,0,0,0,0s0,0,0,0h0l-.12-.05h0a.17.17,0,0,0-.1,0,5.1,5.1,0,0,0-1-.22l-.2,0a5.83,5.83,0,0,0-.59,0,1.62,1.62,0,0,0-.31,0h-.09a.41.41,0,0,0,0-.11c0-.11,0-.2,0-.29a3.24,3.24,0,0,0,0-.44.38.38,0,0,0,0-.1.71.71,0,0,0,0-.2,1,1,0,0,0,0-.18.57.57,0,0,0,0-.18,1.13,1.13,0,0,0,0-.18c0-.1,0-.2-.07-.3s0-.19-.08-.29a.19.19,0,0,0,0-.07,4.6,4.6,0,0,0-.19-.52l-.09-.21a1.76,1.76,0,0,0-.09-.2l0,0a2.12,2.12,0,0,0-.11-.21c-.08-.15-.18-.31-.28-.46l-.06-.08a2.14,2.14,0,0,0-.19-.26.05.05,0,0,0,0,0,.9.9,0,0,0-.16-.19s0,0,0,0h0s0,0,0,0,0,0,0,0,0,0,0-.05A.58.58,0,0,0,113,137l-.13-.16-2.33-2.32,6.6-6.6a3.57,3.57,0,0,1,4-.76,3.29,3.29,0,0,1,1.11.76l10.35,10.35,2,2,3.35,3.35,6.73,6.71a3.67,3.67,0,0,1,.75,1.12A3.61,3.61,0,0,1,144.66,155.42Z"/><path class="cls-2" d="M126.49,159l0,0-.28.27h0A2.32,2.32,0,0,0,126.49,159Z"/><path class="cls-2" d="M128.52,157l-.28.28-.47-.49a2.77,2.77,0,0,0,.12-.41h0l.46.46Z"/><path class="cls-2" d="M132,164.86a3.6,3.6,0,0,1-.75,4l-6.6,6.6a3.59,3.59,0,0,1-5.09,0l-4.72-4.72,7-7,.33-.32,4.06-4.06h0a2.32,2.32,0,0,0,.26-.3l2.33,2.32,2.41,2.42A3.41,3.41,0,0,1,132,164.86Z"/><path class="cls-2" d="M134.07,162.78A3.51,3.51,0,0,1,133,162l-4.54-4.55-.18-.17-.47-.49a2.77,2.77,0,0,0,.12-.41h0l.46.46.16.16,4.71,4.72A6.31,6.31,0,0,1,134.07,162.78Z"/><path class="cls-2" d="M131.23,168.85l-6.6,6.6a3.59,3.59,0,0,1-5.09,0l-4.72-4.72,11.41-11.41h0a2.32,2.32,0,0,0,.26-.3l2.33,2.32,2.41,2.42a3.41,3.41,0,0,1,.75,1.11A3.6,3.6,0,0,1,131.23,168.85Z"/><path class="cls-1" d="M177.65,105.89l-8.87,8.87-3.34-3.35L153.08,99.06,130.7,76.67l-2-2L106.77,96.58a3.55,3.55,0,0,1-.87.64l-.05,0a0,0,0,0,0,0,0h0l0,0a0,0,0,0,1,0,0h0l-.09,0a2.08,2.08,0,0,1-.32.12l-.28.08-.17,0a2.15,2.15,0,0,1-.34.05,3.28,3.28,0,0,1-1.08-.06l-.3-.07a4.06,4.06,0,0,1-.65-.27,3.55,3.55,0,0,1-.87-.64L95.12,90a2.73,2.73,0,0,1-.32-.37l0,0s0,0,0,0l-.12-.18-.12-.2a4,4,0,0,1-.21-.47,1,1,0,0,1-.08-.25,1.46,1.46,0,0,1,0-.2.13.13,0,0,1,0-.06s0,0,0,0a0,0,0,0,1,0,0,.28.28,0,0,1,0-.09.55.55,0,0,1,0-.18,1,1,0,0,1,0-.17,1.28,1.28,0,0,1,0-.19v-.08c0-.11,0-.22,0-.34s0-.22.05-.33a3.38,3.38,0,0,1,.08-.34,2.09,2.09,0,0,1,.08-.23,1.6,1.6,0,0,1,.1-.23,2.1,2.1,0,0,1,.15-.3L126,54.24a10.55,10.55,0,0,1,14.92,0L177.65,91A10.56,10.56,0,0,1,177.65,105.89Z"/><path class="cls-1" d="M86.91,116.07a3.47,3.47,0,0,1-.77,1.15l-13,13L68.37,135a3.52,3.52,0,0,1-1.13.76,3.58,3.58,0,0,1-4-.76l-6.55-6.55a3.6,3.6,0,0,1,0-5.1l4.75-4.75,2-2,11-11a3.43,3.43,0,0,1,.75-.58,3.61,3.61,0,0,1,4.35.58l6.55,6.55A3.62,3.62,0,0,1,86.91,116.07Z"/><path class="cls-1" d="M89,118.16a5.79,5.79,0,0,1-.86,1.06l-13,13L70.38,137a6.39,6.39,0,0,1-1,.83,3.59,3.59,0,0,1,.76-1.12l4.75-4.76,1.48-1.48.52-.52,11-11A3.47,3.47,0,0,1,89,118.16Z"/><path class="cls-1" d="M86.91,116.07a3.47,3.47,0,0,1-.77,1.15l-13,13L68.37,135a3.52,3.52,0,0,1-1.13.76,3.58,3.58,0,0,1-4-.76l-6.55-6.55a3.6,3.6,0,0,1,0-5.1l4.75-4.75,2-2,11-11a3.43,3.43,0,0,1,.75-.58,3.61,3.61,0,0,1,4.35.58l6.55,6.55A3.62,3.62,0,0,1,86.91,116.07Z"/><path class="cls-1" d="M86.91,116.07a3.47,3.47,0,0,1-.77,1.15l-13,13L68.37,135a3.52,3.52,0,0,1-1.13.76,6.38,6.38,0,0,1,.84-1l4.76-4.76,1.48-1.48.52-.52,11-11A6.14,6.14,0,0,1,86.91,116.07Z"/><path class="cls-1" d="M100.28,129.44a3.58,3.58,0,0,1-.78,1.13l-11,11-.52.53-1.48,1.47-4.76,4.77a3.52,3.52,0,0,1-1.13.76,3.6,3.6,0,0,1-4-.76l-6.55-6.55a3.61,3.61,0,0,1,0-5.1l4.75-4.76,1.48-1.48.52-.52,11-11a3.47,3.47,0,0,1,1.15-.77,3.62,3.62,0,0,1,4,.77l6.55,6.56A3.61,3.61,0,0,1,100.28,129.44Z"/><path class="cls-1" d="M102.35,131.54a5.91,5.91,0,0,1-.84,1l-11,11-2,2-4.76,4.75a6.14,6.14,0,0,1-1.06.86,3.47,3.47,0,0,1,.77-1.15l4.76-4.75,1.48-1.49.52-.51,11-11A3.52,3.52,0,0,1,102.35,131.54Z"/><path class="cls-1" d="M100.28,129.44a3.58,3.58,0,0,1-.78,1.13l-11,11-.52.53-1.48,1.47-4.76,4.77a3.52,3.52,0,0,1-1.13.76,3.6,3.6,0,0,1-4-.76l-6.55-6.55a3.61,3.61,0,0,1,0-5.1l4.75-4.76,1.48-1.48.52-.52,11-11a3.47,3.47,0,0,1,1.15-.77,3.62,3.62,0,0,1,4,.77l6.55,6.56A3.61,3.61,0,0,1,100.28,129.44Z"/><path class="cls-1" d="M100.28,129.44a3.58,3.58,0,0,1-.78,1.13l-11,11-.52.53-1.48,1.47-4.76,4.77a3.52,3.52,0,0,1-1.13.76,6.11,6.11,0,0,1,.85-1.05l4.75-4.76,13-13A6.15,6.15,0,0,1,100.28,129.44Z"/><path class="cls-1" d="M113.91,141.36a1.15,1.15,0,0,1,0,.19s0,0,0,0,0,0,0,0a.86.86,0,0,1,0,.23,1.57,1.57,0,0,1,0,.24,2.49,2.49,0,0,1-.08.32,0,0,0,0,1,0,0,2.43,2.43,0,0,1-.13.38h0l-.09.21a3.12,3.12,0,0,1-.4.62l-.26.28h0l-11,11-.4.41-.12.11L99.85,157l-.4.4h0l-4.34,4.35a3.66,3.66,0,0,1-1.15.78h0a3.59,3.59,0,0,1-3.94-.78l-6.55-6.55a3.59,3.59,0,0,1-.77-3.95,3.47,3.47,0,0,1,.77-1.15l4.76-4.75,1.48-1.49.52-.51,11-11a3.52,3.52,0,0,1,1.13-.76,3.58,3.58,0,0,1,4,.76l2,2,3.18,3.19,1.34,1.34a3.55,3.55,0,0,1,.4.47l.1.15a1.59,1.59,0,0,1,.13.22l.12.25,0,.06a1.55,1.55,0,0,1,.08.23,0,0,0,0,1,0,0,.5.5,0,0,1,0,.13.94.94,0,0,1,0,.16.76.76,0,0,1,0,.16,2.17,2.17,0,0,1,0,.25h0A2.83,2.83,0,0,1,113.91,141.36Z"/><path class="cls-1" d="M115.7,144.91a4,4,0,0,1-.57.74l-.08.1-.17.19h0l-11,11-.38.36,0,0-.11.12-.16.16L101.85,159l-.4.4h0l-4.35,4.34a6.11,6.11,0,0,1-1,.85,3.52,3.52,0,0,1,.76-1.13l4.35-4.36h0l.4-.4,1.48-1.48.12-.12.4-.4,11-11h0a2.37,2.37,0,0,1,.29-.25A3.13,3.13,0,0,1,115.7,144.91Z"/><path class="cls-1" d="M113.91,141.36a1.15,1.15,0,0,1,0,.19s0,0,0,0,0,0,0,0a.86.86,0,0,1,0,.23,1.57,1.57,0,0,1,0,.24,2.49,2.49,0,0,1-.08.32,0,0,0,0,1,0,0,2.43,2.43,0,0,1-.13.38h0l-.09.21a3.12,3.12,0,0,1-.4.62l-.26.28h0l-11,11-.4.41-.12.11L99.85,157l-.4.4h0l-4.34,4.35a3.66,3.66,0,0,1-1.15.78h0a3.59,3.59,0,0,1-3.94-.78l-6.55-6.55a3.59,3.59,0,0,1-.77-3.95,3.47,3.47,0,0,1,.77-1.15l4.76-4.75,1.48-1.49.52-.51,11-11a3.52,3.52,0,0,1,1.13-.76,3.58,3.58,0,0,1,4,.76l2,2,3.18,3.19,1.34,1.34a3.55,3.55,0,0,1,.4.47l.1.15a1.59,1.59,0,0,1,.13.22l.12.25,0,.06a1.55,1.55,0,0,1,.08.23,0,0,0,0,1,0,0,.5.5,0,0,1,0,.13.94.94,0,0,1,0,.16.76.76,0,0,1,0,.16,2.17,2.17,0,0,1,0,.25h0A2.83,2.83,0,0,1,113.91,141.36Z"/><path class="cls-1" d="M99.44,157.36l-4.34,4.35a3.66,3.66,0,0,1-1.15.78,6.21,6.21,0,0,1,.86-1.07l4.35-4.35.4-.4,1.49-1.48.11-.12.21-.2,11.22-11.22a2.27,2.27,0,0,1,.28-.26,1.06,1.06,0,0,1,.2-.17l.15-.11.39-.29a1.8,1.8,0,0,1-.08.21,3.12,3.12,0,0,1-.4.62l-.27.29-11,11-.4.41-.12.11L99.85,157l-.4.4"/><path class="cls-1" d="M113.62,142.81h0Z"/><path class="cls-1" d="M127.27,154.79a2.44,2.44,0,0,1,0,.28c0,.11,0,.21,0,.31s0,.19-.06.29a3,3,0,0,1-.1.32c0,.11-.08.21-.13.32h0a3.59,3.59,0,0,1-.43.69l0,0-.28.28-4.07,4.07-.29.28-7.06,7.06-2,2-4.35,4.34a3.6,3.6,0,0,1-5.1,0l-6.55-6.55a3.6,3.6,0,0,1-.76-4,3.52,3.52,0,0,1,.76-1.13l4.35-4.36h0l.4-.4,1.48-1.48.12-.12.4-.4,11-11h0a2.37,2.37,0,0,1,.29-.25,3.13,3.13,0,0,1,.82-.49l.16-.08h0l.14-.05h0a4,4,0,0,1,.58-.13h0l.16,0h.29a3.55,3.55,0,0,1,.46,0h0l.29.05.17,0,.26.08a1.58,1.58,0,0,1,.34.13l.06,0,.26.14.25.16c.08,0,.16.12.24.18s.15.13.22.21l3.76,3.75h0l2,2h0l.8.79v0a3.14,3.14,0,0,1,.34.4,2.57,2.57,0,0,1,.26.41l0,.09a2.14,2.14,0,0,1,.1.22,2,2,0,0,1,.08.22h0a0,0,0,0,1,0,0,2.54,2.54,0,0,1,.1.37l0,.16,0,.2A3.87,3.87,0,0,1,127.27,154.79Z"/><path class="cls-1" d="M127.27,154.79a2.44,2.44,0,0,1,0,.28c0,.11,0,.21,0,.31s0,.19-.06.29a3,3,0,0,1-.1.32c0,.11-.08.21-.13.32h0a3.47,3.47,0,0,1-.69,1h0l-4.06,4.07-.29.28-7.06,7.06-2,2-4.35,4.34a3.6,3.6,0,0,1-5.1,0l-6.55-6.55a3.6,3.6,0,0,1-.76-4,3.52,3.52,0,0,1,.76-1.13l4.35-4.36h0l.4-.4,1.48-1.48.12-.12.4-.4,11-11h0a2.37,2.37,0,0,1,.29-.25,3.13,3.13,0,0,1,.82-.49l.16-.08h0l.14-.05h0a4,4,0,0,1,.58-.13h0l.16,0h.29a3.55,3.55,0,0,1,.46,0h0l.29.05.17,0,.26.08a1.58,1.58,0,0,1,.34.13l.06,0,.26.14.25.16c.08,0,.16.12.24.18s.15.13.22.21l3.76,3.75h0l2,2h0l.8.79v0a3.14,3.14,0,0,1,.34.4,2.57,2.57,0,0,1,.26.41l0,.09a2.14,2.14,0,0,1,.1.22,2,2,0,0,1,.08.22h0a0,0,0,0,1,0,0,2.54,2.54,0,0,1,.1.37l0,.16,0,.2A3.87,3.87,0,0,1,127.27,154.79Z"/><path class="cls-1" d="M133,71.66a6.38,6.38,0,0,1-1.89,4.55l-.45.46-2-2L106.77,96.58a3.55,3.55,0,0,1-.87.64l-.05,0a0,0,0,0,0,0,0h0l0,0h0l-.09,0a2.08,2.08,0,0,1-.32.12l-.28.08-.17,0a2.15,2.15,0,0,1-.34.05,3.28,3.28,0,0,1-1.08-.06l-.3-.07a4.06,4.06,0,0,1-.65-.27,3.55,3.55,0,0,1-.87-.64L95.12,90a2.73,2.73,0,0,1-.32-.37l0,0s0,0,0,0l-.12-.18-.12-.2a4,4,0,0,1-.21-.47,1,1,0,0,1-.08-.25,1.46,1.46,0,0,1,0-.2.13.13,0,0,1,0-.06s0,0,0,0a0,0,0,0,1,0,0,.28.28,0,0,1,0-.09.55.55,0,0,1,0-.18,1,1,0,0,1,0-.17,1.28,1.28,0,0,1,0-.19v-.08c0-.11,0-.22,0-.34s0-.22.05-.33a3.38,3.38,0,0,1,.08-.34,2.09,2.09,0,0,1,.08-.23,1.6,1.6,0,0,1,.1-.23,2.1,2.1,0,0,1,.15-.3c.07-.12.15-.24.23-.35l0-.07a4.12,4.12,0,0,1,.28-.31l1.38-1.37,1.37-1.37L115,65l2.46-2.46a3.33,3.33,0,0,1,.71-.54l3.21-3.21a6.35,6.35,0,0,1,3.18,1.75l6.55,6.55A6.37,6.37,0,0,1,133,71.66Z"/></svg>