<svg id="Layer_1" data-name="Layer 1" xmlns="http://www.w3.org/2000/svg" viewBox="0 0 226.77 226.77"><defs><style>.cls-1{fill:#2b3276;}.cls-2{fill:#ee7f22;}.cls-3{fill:#f3ab1d;}.cls-4{fill:#01569f;}.cls-5{fill:none;stroke:#01569f;stroke-linecap:round;stroke-miterlimit:10;stroke-width:0.5px;}</style></defs><path class="cls-1" d="M130.94,121.82c-1.29-.48-2.6-.89-3.94-1.25l1-.46a38.92,38.92,0,0,1,3.7,1.46c.76.33,1.51.69,2.25,1.07s1.37.72,1.95,1.06l.2.12.73.43c1,.6,2,1.25,2.95,2A45.06,45.06,0,0,0,130.94,121.82Z"/><path class="cls-1" d="M180,143.06H155.36a45.58,45.58,0,0,0-15.51-16.82s0,0,0,0a45.06,45.06,0,0,0-8.88-4.4c-1.29-.48-2.6-.89-3.94-1.25l1-.46a38.92,38.92,0,0,1,3.7,1.46l1.72-.54L128.64,120c.61-.34,1.2-.7,1.78-1.09a30.38,30.38,0,0,0,10.06-9.37c.65-.11,1.32-.2,2-.26h0a33.17,33.17,0,0,1,7.09,0h0A34,34,0,0,1,180,143.06Z"/><path class="cls-1" d="M168.85,85.68a22.84,22.84,0,0,1-19.26,22.56h0a23.41,23.41,0,0,1-7.09,0h0c-.55-.09-1.09-.2-1.63-.33A30.22,30.22,0,0,0,132.91,67a22.82,22.82,0,0,1,35.94,18.67Z"/><path class="cls-1" d="M99.73,120.57c-1.35.36-2.68.78-4,1.26a44.73,44.73,0,0,0-8.5,4.18,45.49,45.49,0,0,0-15.88,17H46.74a34,34,0,0,1,30.45-33.82h0a33.17,33.17,0,0,1,7.09,0h0c.65.06,1.3.15,1.94.25a30.54,30.54,0,0,0,10,9.35c.8.46,1.63.89,2.48,1.28C99.05,120.28,99.39,120.43,99.73,120.57Z"/><path class="cls-1" d="M81.12,91.65a30,30,0,0,0,4.76,16.28c-.52.12-1,.22-1.59.31a22.83,22.83,0,1,1-3.54-45.38A22.65,22.65,0,0,1,93.85,67,30.15,30.15,0,0,0,81.12,91.65Z"/><path class="cls-2" d="M136.63,137.74a.52.52,0,0,0-.1-.26c-.27-.42-.88-.23-2.65-.23s-2.39-.18-2.64.23a.48.48,0,0,0-.07.26,1.45,1.45,0,0,0,.25.86c.22.33.48.39.81.56a2.31,2.31,0,0,1,.35.21c.95.68.88,1.65,1.32,1.65s.4-1,1.38-1.65a2.47,2.47,0,0,1,.38-.21,1.43,1.43,0,0,0,.77-.5A1.34,1.34,0,0,0,136.63,137.74Zm6.6,1.42h-6.64l-.05,0a3.78,3.78,0,0,0-.57.32c-1.47,1-1.4,2.48-2.07,2.48s-.56-1.46-2-2.48a3.5,3.5,0,0,0-.52-.32l0,0h-7.52a.94.94,0,0,0-1,1v10.8a1,1,0,0,0,1,1h19.4a1,1,0,0,0,1-1v-10.8A1,1,0,0,0,143.23,139.16Zm-6.6-1.42a.52.52,0,0,0-.1-.26c-.27-.42-.88-.23-2.65-.23s-2.39-.18-2.64.23a.48.48,0,0,0-.07.26,1.45,1.45,0,0,0,.25.86c.22.33.48.39.81.56a2.31,2.31,0,0,1,.35.21c.95.68.88,1.65,1.32,1.65s.4-1,1.38-1.65a2.47,2.47,0,0,1,.38-.21,1.43,1.43,0,0,0,.77-.5A1.34,1.34,0,0,0,136.63,137.74Zm6.6,1.42h-6.64l-.05,0a3.78,3.78,0,0,0-.57.32c-1.47,1-1.4,2.48-2.07,2.48s-.56-1.46-2-2.48a3.5,3.5,0,0,0-.52-.32l0,0h-7.52a.94.94,0,0,0-1,1v10.8a1,1,0,0,0,1,1h19.4a1,1,0,0,0,1-1v-10.8A1,1,0,0,0,143.23,139.16Zm-6.6-1.42a.52.52,0,0,0-.1-.26c-.27-.42-.88-.23-2.65-.23s-2.39-.18-2.64.23a.48.48,0,0,0-.07.26,1.45,1.45,0,0,0,.25.86c.22.33.48.39.81.56a2.31,2.31,0,0,1,.35.21c.95.68.88,1.65,1.32,1.65s.4-1,1.38-1.65a2.47,2.47,0,0,1,.38-.21,1.43,1.43,0,0,0,.77-.5A1.34,1.34,0,0,0,136.63,137.74Zm6.6,1.42h-6.64l-.05,0a3.78,3.78,0,0,0-.57.32c-1.47,1-1.4,2.48-2.07,2.48s-.56-1.46-2-2.48a3.5,3.5,0,0,0-.52-.32l0,0h-7.52a.94.94,0,0,0-1,1v10.8a1,1,0,0,0,1,1h19.4a1,1,0,0,0,1-1v-10.8A1,1,0,0,0,143.23,139.16Zm0,0h-6.64l-.05,0a3.78,3.78,0,0,0-.57.32c-1.47,1-1.4,2.48-2.07,2.48s-.56-1.46-2-2.48a3.5,3.5,0,0,0-.52-.32l0,0h-7.52a.94.94,0,0,0-1,1v10.8a1,1,0,0,0,1,1h19.4a1,1,0,0,0,1-1v-10.8A1,1,0,0,0,143.23,139.16Zm-11,0a2.31,2.31,0,0,1,.35.21c.95.68.88,1.65,1.32,1.65s.4-1,1.38-1.65a2.47,2.47,0,0,1,.38-.21,1.43,1.43,0,0,0,.77-.5,1.34,1.34,0,0,0,.2-.92.52.52,0,0,0-.1-.26c-.27-.42-.88-.23-2.65-.23s-2.39-.18-2.64.23a.48.48,0,0,0-.07.26,1.45,1.45,0,0,0,.25.86C131.64,138.93,131.9,139,132.23,139.16Zm24.51,22.73c0-.31,0-.6,0-.89s0-.57,0-.85,0-.34,0-.51,0-.53-.07-.81-.08-.7-.12-1.05-.13-1-.22-1.47c0-.32-.1-.63-.16-.95s-.11-.56-.16-.84-.12-.53-.17-.8l-.36-1.43c-.14-.52-.29-1-.44-1.55,0-.07,0-.16-.07-.22-.1-.31-.2-.63-.31-1-.33-1-.7-1.94-1.1-2.89-.33-.76-.67-1.51-1-2.24-.19-.38-.38-.75-.58-1.12l-.55-1c-.19-.33-.38-.66-.58-1l-.6-1A33.9,33.9,0,0,0,148,137.4c-.19-.26-.39-.51-.6-.76s-.46-.57-.7-.85-.5-.6-.77-.89l-.55-.6c-.35-.39-.72-.76-1.09-1.13s-.77-.75-1.16-1.11-.69-.64-1-.94l-.78-.66a42.71,42.71,0,0,0-5-3.54l-.88-.52c-.59-.35-1.19-.67-1.8-1-.84-.43-1.69-.84-2.55-1.21s-1.76-.73-2.66-1h0l-.85-.29q-1-.34-2.1-.63c-.67-.18-1.34-.34-2-.49h0c-.33-.08-.67-.15-1-.21l-.93-.17-.64-.1c-.21,0-.42-.06-.63-.09l-.93-.12h0l-.47-.06h0l-1.09-.1-.76,0c-.85,0-1.71-.08-2.57-.08s-1.72,0-2.57.08l-.76,0L110,121h0l-.45,0h0l-.47.06c-.35,0-.71.09-1.06.15h0l-.56.09h0q-.51.07-1,.18c-.34.06-.69.13-1,.21s-.77.17-1.15.27-.76.19-1.13.3c-.75.2-1.49.43-2.22.68h0l-.5.17-.16.06c-.51.18-1,.37-1.53.58-.72.29-1.43.59-2.12.92a40.25,40.25,0,0,0-5,2.78c-.32.2-.64.42-1,.63s-.63.42-.93.66l-.92.68-.9.71-.69.56-.42.36c-.47.41-.94.83-1.39,1.26a1.85,1.85,0,0,0-.14.14c-.25.24-.5.48-.74.73-.82.81-1.6,1.66-2.34,2.54-.24.28-.47.56-.7.85-.48.59-1,1.19-1.38,1.82-.23.31-.44.61-.66.93s-.43.63-.63,1l-.6,1c-.2.33-.39.66-.58,1l-.55,1c-.2.37-.39.74-.58,1.12l-.54,1.13q-.27.59-.51,1.17c-.16.38-.32.78-.47,1.17s-.3.79-.44,1.19-.22.63-.32,1a39.8,39.8,0,0,0-1.13,4.19c-.07.32-.14.65-.2,1l0,.15c-.06.32-.11.63-.16.95-.09.51-.17,1-.23,1.57s-.1.87-.14,1.31-.07.7-.09,1.06,0,.5,0,.75,0,.58,0,.89,0,.86,0,1.29h84.79C156.76,162.75,156.75,162.32,156.74,161.89Zm-11.14-11a2.38,2.38,0,0,1-2.37,2.38h-19.4a2.38,2.38,0,0,1-2.37-2.38v-10.8a2.37,2.37,0,0,1,2.37-2.37h6.06a1.39,1.39,0,0,1-.1-.69.68.68,0,0,1,.11-.39c.37-.62,1.34-.35,4-.35s3.57-.28,4,.35a.73.73,0,0,1,.15.39,1.47,1.47,0,0,1,0,.69h5.25a2.37,2.37,0,0,1,2.37,2.37Zm-2.37-11.75h-6.64l-.05,0a3.78,3.78,0,0,0-.57.32c-1.47,1-1.4,2.48-2.07,2.48s-.56-1.46-2-2.48a3.5,3.5,0,0,0-.52-.32l0,0h-7.52a.94.94,0,0,0-1,1v10.8a1,1,0,0,0,1,1h19.4a1,1,0,0,0,1-1v-10.8A1,1,0,0,0,143.23,139.16Zm-11,0a2.31,2.31,0,0,1,.35.21c.95.68.88,1.65,1.32,1.65s.4-1,1.38-1.65a2.47,2.47,0,0,1,.38-.21,1.43,1.43,0,0,0,.77-.5,1.34,1.34,0,0,0,.2-.92.52.52,0,0,0-.1-.26c-.27-.42-.88-.23-2.65-.23s-2.39-.18-2.64.23a.48.48,0,0,0-.07.26,1.45,1.45,0,0,0,.25.86C131.64,138.93,131.9,139,132.23,139.16Zm4.4-1.42a.52.52,0,0,0-.1-.26c-.27-.42-.88-.23-2.65-.23s-2.39-.18-2.64.23a.48.48,0,0,0-.07.26,1.45,1.45,0,0,0,.25.86c.22.33.48.39.81.56a2.31,2.31,0,0,1,.35.21c.95.68.88,1.65,1.32,1.65s.4-1,1.38-1.65a2.47,2.47,0,0,1,.38-.21,1.43,1.43,0,0,0,.77-.5A1.34,1.34,0,0,0,136.63,137.74Zm6.6,1.42h-6.64l-.05,0a3.78,3.78,0,0,0-.57.32c-1.47,1-1.4,2.48-2.07,2.48s-.56-1.46-2-2.48a3.5,3.5,0,0,0-.52-.32l0,0h-7.52a.94.94,0,0,0-1,1v10.8a1,1,0,0,0,1,1h19.4a1,1,0,0,0,1-1v-10.8A1,1,0,0,0,143.23,139.16Zm-6.6-1.42a.52.52,0,0,0-.1-.26c-.27-.42-.88-.23-2.65-.23s-2.39-.18-2.64.23a.48.48,0,0,0-.07.26,1.45,1.45,0,0,0,.25.86c.22.33.48.39.81.56a2.31,2.31,0,0,1,.35.21c.95.68.88,1.65,1.32,1.65s.4-1,1.38-1.65a2.47,2.47,0,0,1,.38-.21,1.43,1.43,0,0,0,.77-.5A1.34,1.34,0,0,0,136.63,137.74Zm6.6,1.42h-6.64l-.05,0a3.78,3.78,0,0,0-.57.32c-1.47,1-1.4,2.48-2.07,2.48s-.56-1.46-2-2.48a3.5,3.5,0,0,0-.52-.32l0,0h-7.52a.94.94,0,0,0-1,1v10.8a1,1,0,0,0,1,1h19.4a1,1,0,0,0,1-1v-10.8A1,1,0,0,0,143.23,139.16Zm0,0h-6.64l-.05,0a3.78,3.78,0,0,0-.57.32c-1.47,1-1.4,2.48-2.07,2.48s-.56-1.46-2-2.48a3.5,3.5,0,0,0-.52-.32l0,0h-7.52a.94.94,0,0,0-1,1v10.8a1,1,0,0,0,1,1h19.4a1,1,0,0,0,1-1v-10.8A1,1,0,0,0,143.23,139.16Z"/><path class="cls-2" d="M142.82,92.9a28.28,28.28,0,0,1-4.77,15.77c-.36.55-.75,1.09-1.16,1.61a26.42,26.42,0,0,1-2.38,2.7c-.16.17-.32.33-.49.48a27,27,0,0,1-2.52,2.15l-.88.64-.72.48a24.62,24.62,0,0,1-2.38,1.39,27.78,27.78,0,0,1-4.78,2h0l-.11,0-.66.19h0l-.27.07-.35.1h0l-.48.11h0l-.08,0h0c-.4.09-.79.17-1.19.24h0l-.09,0a4.68,4.68,0,0,1-.54.1h0a28.08,28.08,0,0,1-8.84,0h0a5.59,5.59,0,0,1-.59-.11h0l-.44-.09h-.06l-.32-.06c-.56-.12-1.11-.26-1.66-.41q-.41-.1-.81-.24h0c-.36-.11-.71-.22-1.06-.35l-1-.38a1.78,1.78,0,0,1-.29-.12h0c-.58-.23-1.16-.49-1.72-.77-.27-.13-.54-.26-.8-.41a7,7,0,0,1-.66-.35q-.39-.21-.78-.45c-.12-.07-.24-.14-.35-.22s-.38-.24-.57-.37-.38-.24-.56-.37l-.17-.12-.77-.56a30.62,30.62,0,0,1-2.6-2.21l-.42-.42-.56-.57c-.64-.68-1.25-1.4-1.82-2.14q-.6-.78-1.14-1.59A28.45,28.45,0,1,1,142.82,92.9Z"/><path class="cls-1" d="M133.46,121l-1.72.54a38.92,38.92,0,0,0-3.7-1.46,23.34,23.34,0,0,0,2.38-1.24c-.58.39-1.17.75-1.78,1.09Z"/><path class="cls-1" d="M99.73,120.57c-1.35.36-2.68.78-4,1.26L95,121.6l-1.8-.56,4.9-1.08c-.63-.35-1.24-.72-1.84-1.12.8.46,1.63.89,2.48,1.28C99.05,120.28,99.39,120.43,99.73,120.57Z"/><path class="cls-1" d="M95.75,121.83a44.73,44.73,0,0,0-8.5,4.18l.57-.41.19-.13c.31-.2.63-.42.94-.61a42.37,42.37,0,0,1,5.34-3c.22-.1.44-.21.69-.31.45-.21,1-.43,1.56-.67s1.09-.43,1.65-.62l.53-.19c.33.16.67.31,1,.45C98.38,120.93,97.05,121.35,95.75,121.83Z"/><path class="cls-3" d="M136.43,138.66a1.43,1.43,0,0,1-.77.5,2.47,2.47,0,0,0-.38.21c-1,.65-.93,1.65-1.38,1.65s-.37-1-1.32-1.65a2.31,2.31,0,0,0-.35-.21c-.33-.17-.59-.23-.81-.56a1.45,1.45,0,0,1-.25-.86h5.46A1.34,1.34,0,0,1,136.43,138.66Z"/><path class="cls-3" d="M144.19,140.11v10.8a1,1,0,0,1-1,1h-19.4a1,1,0,0,1-1-1v-10.8a.94.94,0,0,1,1-1h7.52l0,0a3.5,3.5,0,0,1,.52.32c1.43,1,1.32,2.48,2,2.48s.6-1.5,2.07-2.48a3.78,3.78,0,0,1,.57-.32l.05,0h6.64A1,1,0,0,1,144.19,140.11Z"/><path class="cls-3" d="M132.58,139.37a2.31,2.31,0,0,0-.35-.21h3.43a2.47,2.47,0,0,0-.38.21c-1,.65-.93,1.65-1.38,1.65S133.53,140.05,132.58,139.37Z"/><path class="cls-3" d="M144.19,140.11v10.8a1,1,0,0,1-1,1h-19.4a1,1,0,0,1-1-1v-10.8a.94.94,0,0,1,1-1h7.52l0,0a3.5,3.5,0,0,1,.52.32c1.43,1,1.32,2.48,2,2.48s.6-1.5,2.07-2.48a3.78,3.78,0,0,1,.57-.32l.05,0h6.64A1,1,0,0,1,144.19,140.11Z"/><path class="cls-4" d="M136.43,138.66a1.43,1.43,0,0,1-.77.5,2.47,2.47,0,0,0-.38.21c-1,.65-.93,1.65-1.38,1.65s-.37-1-1.32-1.65a2.31,2.31,0,0,0-.35-.21c-.33-.17-.59-.23-.81-.56a1.45,1.45,0,0,1-.25-.86.48.48,0,0,1,.07-.26c.25-.41.89-.23,2.64-.23s2.38-.19,2.65.23a.52.52,0,0,1,.1.26A1.34,1.34,0,0,1,136.43,138.66Z"/><line class="cls-5" x1="131.21" y1="145.36" x2="143.03" y2="145.36"/><line class="cls-5" x1="131.21" y1="146.92" x2="138" y2="146.92"/><line class="cls-5" x1="131.21" y1="148.51" x2="139.88" y2="148.51"/><line class="cls-5" x1="139.06" y1="146.92" x2="142.46" y2="146.92"/><rect class="cls-4" x="124.04" y="142.97" width="5.24" height="6.26" rx="0.55"/><path class="cls-4" d="M136.43,138.66a1.43,1.43,0,0,1-.77.5,2.47,2.47,0,0,0-.38.21c-1,.65-.93,1.65-1.38,1.65s-.37-1-1.32-1.65a2.31,2.31,0,0,0-.35-.21c-.33-.17-.59-.23-.81-.56a1.45,1.45,0,0,1-.25-.86.48.48,0,0,1,.07-.26c.25-.41.89-.23,2.64-.23s2.38-.19,2.65.23a.52.52,0,0,1,.1.26A1.34,1.34,0,0,1,136.43,138.66Z"/></svg>